<?xml version="1.0" standalone="no"?>
<!DOCTYPE svg PUBLIC "-//W3C//DTD SVG 1.1//EN"
"http://www.w3.org/Graphics/SVG/1.1/DTD/svg11.dtd">

<svg width="268" height="270" view_box="0 0 268 270"
xmlns="http://www.w3.org/2000/svg"
xmlns:link="http://www.w3.org/1999/xlink">\n\n<desc>Généré par Mocodo 2.3.7 le Mon, 17 Aug 2020 00:35:10</desc>

<rect id="frame" x="0" y="0" width="268" height="270" fill="#ffffff" stroke="none" stroke-width="0"/>

<!-- Association CONTIENT -->
<line x1="134" y1="43" x2="134" y2="127" stroke="#d6604d" stroke-width="2"/>
<text x="139.0" y="94" fill="#4d4d4d" font-family="Verdana" font-size="12">0,N</text>
<line x1="37" y1="219" x2="134" y2="127" stroke="#d6604d" stroke-width="2"/>
<text x="70" y="202.636754171" fill="#4d4d4d" font-family="Verdana" font-size="12">1,1</text>
<g id="association-CONTIENT">
	<path d="M 159 102 a 14 14 90 0 1 14 14 V 127 h -78 V 116 a 14 14 90 0 1 14 -14" fill="#f4a582" stroke="#f4a582" stroke-width="0"/>
	<path d="M 173 127.0 v 11 a 14 14 90 0 1 -14 14 H 109 a 14 14 90 0 1 -14 -14 V 127.0 H 78" fill="#fddbc7" stroke="#fddbc7" stroke-width="0"/>
	<rect x="95" y="102" width="78" height="50" fill="none" rx="14" stroke="#d6604d" stroke-width="2"/>
	<line x1="95" y1="127" x2="173" y2="127" stroke="#d6604d" stroke-width="1"/>
	<text x="102" y="119.7" fill="#000000" font-family="Verdana" font-size="12">CONTIENT</text>
</g>

<!-- Association POSSEDE -->
<line x1="37" y1="219" x2="134" y2="219" stroke="#d6604d" stroke-width="2"/>
<text x="70" y="236.0" fill="#4d4d4d" font-family="Verdana" font-size="12">0,N</text>
<line x1="231" y1="219" x2="134" y2="219" stroke="#d6604d" stroke-width="2"/>
<text x="176" y="236.0" fill="#4d4d4d" font-family="Verdana" font-size="12">0,N</text>
<g id="association-POSSEDE">
	<path d="M 157 194 a 14 14 90 0 1 14 14 V 219 h -74 V 208 a 14 14 90 0 1 14 -14" fill="#f4a582" stroke="#f4a582" stroke-width="0"/>
	<path d="M 171 219.0 v 11 a 14 14 90 0 1 -14 14 H 111 a 14 14 90 0 1 -14 -14 V 219.0 H 74" fill="#fddbc7" stroke="#fddbc7" stroke-width="0"/>
	<rect x="97" y="194" width="74" height="50" fill="none" rx="14" stroke="#d6604d" stroke-width="2"/>
	<line x1="97" y1="219" x2="171" y2="219" stroke="#d6604d" stroke-width="1"/>
	<text x="104" y="211.7" fill="#000000" font-family="Verdana" font-size="12">POSSEDE</text>
</g>

<!-- Entity LISTE -->
<g id="entity-LISTE">
	<g id="frame-LISTE">
		<rect x="111" y="9" width="46" height="25" fill="#bababa" stroke="#bababa" stroke-width="0"/>
		<rect x="111" y="34.0" width="46" height="43" fill="#e0e0e0" stroke="#e0e0e0" stroke-width="0"/>
		<rect x="111" y="9" width="46" height="68" fill="none" stroke="#878787" stroke-width="2"/>
		<line x1="111" y1="34" x2="157" y2="34" stroke="#878787" stroke-width="1"/>
	</g>
	<text x="116" y="26.7" fill="#000000" font-family="Verdana" font-size="12">LISTE</text>
	<text x="116" y="51.8" fill="#000000" font-family="Verdana" font-size="12">nom</text>
	<line x1="116" y1="54" x2="144" y2="54" stroke="#000000" stroke-width="1"/>
	<text x="116" y="68.8" fill="#000000" font-family="Verdana" font-size="12">ordre</text>
</g>

<!-- Entity CARTE -->
<g id="entity-CARTE">
	<g id="frame-CARTE">
		<rect x="9" y="177" width="56" height="25" fill="#bababa" stroke="#bababa" stroke-width="0"/>
		<rect x="9" y="202.0" width="56" height="59" fill="#e0e0e0" stroke="#e0e0e0" stroke-width="0"/>
		<rect x="9" y="177" width="56" height="84" fill="none" stroke="#878787" stroke-width="2"/>
		<line x1="9" y1="202" x2="65" y2="202" stroke="#878787" stroke-width="1"/>
	</g>
	<text x="16" y="194.7" fill="#000000" font-family="Verdana" font-size="12">CARTE</text>
	<text x="14" y="219.8" fill="#000000" font-family="Verdana" font-size="12">titre</text>
	<line x1="14" y1="222" x2="40" y2="222" stroke="#000000" stroke-width="1"/>
	<text x="14" y="236.8" fill="#000000" font-family="Verdana" font-size="12">couleur</text>
	<text x="14" y="253.8" fill="#000000" font-family="Verdana" font-size="12">ordre</text>
</g>

<!-- Entity LABEL -->
<g id="entity-LABEL">
	<g id="frame-LABEL">
		<rect x="203" y="185" width="56" height="25" fill="#bababa" stroke="#bababa" stroke-width="0"/>
		<rect x="203" y="210.0" width="56" height="43" fill="#e0e0e0" stroke="#e0e0e0" stroke-width="0"/>
		<rect x="203" y="185" width="56" height="68" fill="none" stroke="#878787" stroke-width="2"/>
		<line x1="203" y1="210" x2="259" y2="210" stroke="#878787" stroke-width="1"/>
	</g>
	<text x="212" y="202.7" fill="#000000" font-family="Verdana" font-size="12">LABEL</text>
	<text x="208" y="227.8" fill="#000000" font-family="Verdana" font-size="12">nom</text>
	<line x1="208" y1="230" x2="236" y2="230" stroke="#000000" stroke-width="1"/>
	<text x="208" y="244.8" fill="#000000" font-family="Verdana" font-size="12">couleur</text>
</g>
</svg>